<mxfile host="app.diagrams.net" modified="2024-04-16T20:00:20.601Z" agent="Mozilla/5.0 (X11; Linux x86_64; rv:124.0) Gecko/20100101 Firefox/124.0" etag="eWkt87xik_3gQakety87" version="24.2.5" type="device">
  <diagram name="Page-1" id="jxj-GSE2XmSgv0TfehTp">
    <mxGraphModel dx="410" dy="830" grid="1" gridSize="10" guides="1" tooltips="1" connect="1" arrows="1" fold="1" page="1" pageScale="1" pageWidth="850" pageHeight="1100" math="0" shadow="0">
      <root>
        <mxCell id="0" />
        <mxCell id="1" parent="0" />
        <mxCell id="w6oBGZbcz812S2u_7wkj-1" value="&lt;div&gt;Auth&lt;/div&gt;&lt;div&gt;POST /register&lt;br&gt;&lt;/div&gt;" style="rounded=1;whiteSpace=wrap;html=1;" parent="1" vertex="1">
          <mxGeometry x="68" y="170" width="120" height="60" as="geometry" />
        </mxCell>
        <mxCell id="w6oBGZbcz812S2u_7wkj-2" value="&lt;font style=&quot;font-size: 21px;&quot;&gt;Register&lt;/font&gt;" style="text;html=1;align=center;verticalAlign=middle;whiteSpace=wrap;rounded=0;" parent="1" vertex="1">
          <mxGeometry x="363" y="10" width="150" height="70" as="geometry" />
        </mxCell>
        <mxCell id="w6oBGZbcz812S2u_7wkj-4" style="edgeStyle=orthogonalEdgeStyle;rounded=0;orthogonalLoop=1;jettySize=auto;html=1;entryX=1;entryY=0.5;entryDx=0;entryDy=0;" parent="1" source="w6oBGZbcz812S2u_7wkj-3" target="w6oBGZbcz812S2u_7wkj-1" edge="1">
          <mxGeometry relative="1" as="geometry" />
        </mxCell>
        <mxCell id="w6oBGZbcz812S2u_7wkj-3" value="&lt;div&gt;Api&lt;/div&gt;POST /register" style="rounded=1;whiteSpace=wrap;html=1;" parent="1" vertex="1">
          <mxGeometry x="373" y="170" width="120" height="60" as="geometry" />
        </mxCell>
        <mxCell id="w6oBGZbcz812S2u_7wkj-5" value="&lt;div&gt;Header&lt;br&gt;&lt;/div&gt;&lt;div&gt;Authorization: Basic &amp;lt;username:password&amp;gt; (base64 encoded)&lt;br&gt;&lt;/div&gt;" style="text;html=1;align=center;verticalAlign=middle;whiteSpace=wrap;rounded=0;" parent="1" vertex="1">
          <mxGeometry x="223" y="110" width="420" height="50" as="geometry" />
        </mxCell>
        <mxCell id="w6oBGZbcz812S2u_7wkj-7" style="edgeStyle=orthogonalEdgeStyle;rounded=0;orthogonalLoop=1;jettySize=auto;html=1;entryX=1;entryY=0.5;entryDx=0;entryDy=0;" parent="1" source="w6oBGZbcz812S2u_7wkj-6" target="w6oBGZbcz812S2u_7wkj-3" edge="1">
          <mxGeometry relative="1" as="geometry" />
        </mxCell>
        <mxCell id="w6oBGZbcz812S2u_7wkj-6" value="Client" style="rounded=1;whiteSpace=wrap;html=1;" parent="1" vertex="1">
          <mxGeometry x="663" y="170" width="120" height="60" as="geometry" />
        </mxCell>
        <mxCell id="w6oBGZbcz812S2u_7wkj-8" value="&lt;div&gt;Auth&lt;/div&gt;&lt;div&gt;POST /register&lt;br&gt;&lt;/div&gt;" style="rounded=1;whiteSpace=wrap;html=1;" parent="1" vertex="1">
          <mxGeometry x="68" y="330" width="120" height="60" as="geometry" />
        </mxCell>
        <mxCell id="w6oBGZbcz812S2u_7wkj-9" style="edgeStyle=orthogonalEdgeStyle;rounded=0;orthogonalLoop=1;jettySize=auto;html=1;exitX=1;exitY=0.5;exitDx=0;exitDy=0;" parent="1" source="w6oBGZbcz812S2u_7wkj-8" target="w6oBGZbcz812S2u_7wkj-10" edge="1">
          <mxGeometry relative="1" as="geometry" />
        </mxCell>
        <mxCell id="w6oBGZbcz812S2u_7wkj-10" value="&lt;div&gt;Api&lt;/div&gt;POST /register" style="rounded=1;whiteSpace=wrap;html=1;" parent="1" vertex="1">
          <mxGeometry x="373" y="330" width="120" height="60" as="geometry" />
        </mxCell>
        <mxCell id="w6oBGZbcz812S2u_7wkj-11" style="edgeStyle=orthogonalEdgeStyle;rounded=0;orthogonalLoop=1;jettySize=auto;html=1;exitX=1;exitY=0.5;exitDx=0;exitDy=0;" parent="1" source="w6oBGZbcz812S2u_7wkj-10" target="w6oBGZbcz812S2u_7wkj-12" edge="1">
          <mxGeometry relative="1" as="geometry" />
        </mxCell>
        <mxCell id="w6oBGZbcz812S2u_7wkj-12" value="Client" style="rounded=1;whiteSpace=wrap;html=1;" parent="1" vertex="1">
          <mxGeometry x="663" y="330" width="120" height="60" as="geometry" />
        </mxCell>
        <mxCell id="w6oBGZbcz812S2u_7wkj-13" value="Status&lt;br&gt;&lt;div&gt;200 user registered or 400 for invalid header&lt;br&gt;&lt;/div&gt;" style="text;html=1;align=center;verticalAlign=middle;whiteSpace=wrap;rounded=0;" parent="1" vertex="1">
          <mxGeometry x="223" y="270" width="420" height="50" as="geometry" />
        </mxCell>
        <mxCell id="w6oBGZbcz812S2u_7wkj-14" value="&lt;div&gt;Auth&lt;/div&gt;&lt;div&gt;GET /login&lt;/div&gt;" style="rounded=1;whiteSpace=wrap;html=1;" parent="1" vertex="1">
          <mxGeometry x="60" y="680" width="120" height="60" as="geometry" />
        </mxCell>
        <mxCell id="w6oBGZbcz812S2u_7wkj-15" value="&lt;font style=&quot;font-size: 21px;&quot;&gt;Login&lt;br&gt;&lt;/font&gt;" style="text;html=1;align=center;verticalAlign=middle;whiteSpace=wrap;rounded=0;comic=0;" parent="1" vertex="1">
          <mxGeometry x="350" y="520" width="150" height="70" as="geometry" />
        </mxCell>
        <mxCell id="w6oBGZbcz812S2u_7wkj-16" style="edgeStyle=orthogonalEdgeStyle;rounded=0;orthogonalLoop=1;jettySize=auto;html=1;entryX=1;entryY=0.5;entryDx=0;entryDy=0;" parent="1" source="w6oBGZbcz812S2u_7wkj-17" target="w6oBGZbcz812S2u_7wkj-14" edge="1">
          <mxGeometry relative="1" as="geometry" />
        </mxCell>
        <mxCell id="w6oBGZbcz812S2u_7wkj-17" value="&lt;div&gt;Api&lt;/div&gt;POST /login" style="rounded=1;whiteSpace=wrap;html=1;" parent="1" vertex="1">
          <mxGeometry x="365" y="680" width="120" height="60" as="geometry" />
        </mxCell>
        <mxCell id="w6oBGZbcz812S2u_7wkj-18" value="&lt;div&gt;Header&lt;br&gt;&lt;/div&gt;&lt;div&gt;Authorization: Basic &amp;lt;username:password&amp;gt; (base64 encoded)&lt;br&gt;&lt;/div&gt;" style="text;html=1;align=center;verticalAlign=middle;whiteSpace=wrap;rounded=0;" parent="1" vertex="1">
          <mxGeometry x="215" y="620" width="420" height="50" as="geometry" />
        </mxCell>
        <mxCell id="w6oBGZbcz812S2u_7wkj-19" style="edgeStyle=orthogonalEdgeStyle;rounded=0;orthogonalLoop=1;jettySize=auto;html=1;entryX=1;entryY=0.5;entryDx=0;entryDy=0;" parent="1" source="w6oBGZbcz812S2u_7wkj-20" target="w6oBGZbcz812S2u_7wkj-17" edge="1">
          <mxGeometry relative="1" as="geometry" />
        </mxCell>
        <mxCell id="w6oBGZbcz812S2u_7wkj-20" value="Client" style="rounded=1;whiteSpace=wrap;html=1;" parent="1" vertex="1">
          <mxGeometry x="655" y="680" width="120" height="60" as="geometry" />
        </mxCell>
        <mxCell id="w6oBGZbcz812S2u_7wkj-21" value="&lt;div&gt;Auth&lt;/div&gt;&lt;div&gt;GET /login&lt;/div&gt;" style="rounded=1;whiteSpace=wrap;html=1;" parent="1" vertex="1">
          <mxGeometry x="60" y="840" width="120" height="60" as="geometry" />
        </mxCell>
        <mxCell id="w6oBGZbcz812S2u_7wkj-22" style="edgeStyle=orthogonalEdgeStyle;rounded=0;orthogonalLoop=1;jettySize=auto;html=1;exitX=1;exitY=0.5;exitDx=0;exitDy=0;" parent="1" source="w6oBGZbcz812S2u_7wkj-21" target="w6oBGZbcz812S2u_7wkj-23" edge="1">
          <mxGeometry relative="1" as="geometry" />
        </mxCell>
        <mxCell id="w6oBGZbcz812S2u_7wkj-23" value="&lt;div&gt;Api&lt;/div&gt;POST /login" style="rounded=1;whiteSpace=wrap;html=1;" parent="1" vertex="1">
          <mxGeometry x="365" y="840" width="120" height="60" as="geometry" />
        </mxCell>
        <mxCell id="w6oBGZbcz812S2u_7wkj-24" style="edgeStyle=orthogonalEdgeStyle;rounded=0;orthogonalLoop=1;jettySize=auto;html=1;exitX=1;exitY=0.5;exitDx=0;exitDy=0;" parent="1" source="w6oBGZbcz812S2u_7wkj-23" target="w6oBGZbcz812S2u_7wkj-25" edge="1">
          <mxGeometry relative="1" as="geometry" />
        </mxCell>
        <mxCell id="w6oBGZbcz812S2u_7wkj-25" value="Client" style="rounded=1;whiteSpace=wrap;html=1;" parent="1" vertex="1">
          <mxGeometry x="655" y="840" width="120" height="60" as="geometry" />
        </mxCell>
        <mxCell id="w6oBGZbcz812S2u_7wkj-26" value="&lt;div&gt;Header&amp;nbsp;&lt;/div&gt;&lt;div&gt;X-Set-Cookie: X-Session-Token=&amp;lt;username:uid:16 random bytes for uniqueness&amp;gt;&lt;/div&gt;" style="text;html=1;align=center;verticalAlign=middle;whiteSpace=wrap;rounded=0;" parent="1" vertex="1">
          <mxGeometry x="193" y="780" width="465" height="50" as="geometry" />
        </mxCell>
      </root>
    </mxGraphModel>
  </diagram>
</mxfile>
